<svg width="232" height="88" viewBox="0 0 232 88" fill="none" xmlns="http://www.w3.org/2000/svg">
<g clip-path="url(#clip0_1125_93)">
<path d="M42.6588 0C66.2117 0 85.3086 19.69 85.3177 43.9953V44.0141C85.3177 49.1359 84.4628 54.0608 82.8987 58.6291L71.7043 27.4947L65.5205 27.4478L51.5707 65.7209H39.6215V59.7267C43.4682 58.4228 47.1602 56.162 50.5977 53.0195L50.3067 52.663L48.7698 50.7775L46.6055 48.1322L46.3327 48.3855C44.2048 50.3366 41.9495 51.8563 39.6306 52.9069V19.1647L39.0577 19.6619L33.7651 24.2772L33.4014 24.5961V54.6048C32.5557 54.6986 31.8373 54.7455 31.1643 54.7455C25.217 54.7455 20.0608 52.5411 15.8413 48.1885C11.6218 43.8358 9.48479 38.5076 9.48479 32.3445C9.48479 26.1814 11.6218 20.9001 15.8413 16.5569C20.0517 12.2136 25.2079 10.0185 31.1643 10.0185C35.9385 10.0185 40.44 11.6508 44.5776 14.859L44.8686 14.6057L49.0154 10.9941L49.3882 10.6658C43.841 5.95672 37.7118 3.56465 31.1643 3.56465C28.6453 3.56465 26.2173 3.88359 23.9166 4.49334C29.5638 1.61347 35.9294 0 42.6588 0ZM33.3923 61.0118C32.6557 61.0775 31.91 61.1056 31.1552 61.1056C23.471 61.1056 16.8235 58.2727 11.4127 52.6912C6.00188 47.1097 3.25557 40.2524 3.25557 32.3258C3.25557 29.8774 3.52838 27.5135 4.06491 25.2527C1.4641 30.9468 0 37.2975 0 43.9953C0 68.2912 19.0969 87.9906 42.6588 87.9906C42.9225 87.9906 43.1863 87.9906 43.45 87.9719L49.2245 72.1185H33.3923V61.0024V61.0118ZM73.2957 50.0834L68.6943 37.0067L64.1201 50.0271L61.1283 58.404L61.1646 58.4228L59.7005 62.5127L58.5365 65.7209H78.8065L76.3785 58.8168L73.3048 50.0927L73.2957 50.0834ZM50.7068 87.2026C60.5826 85.2515 69.2399 79.7919 75.4236 72.1279H56.1903L50.7068 87.2026Z" fill="#3D425D"/>
<path d="M118.819 55.2707C122.266 55.2707 124.203 52.9536 124.203 49.7173C124.203 46.481 122.22 44.2202 118.819 44.2202H111.608V55.2707H118.819ZM118.137 38.6106C121.065 38.6106 122.739 36.4531 122.739 33.7045C122.739 30.956 121.175 28.9579 118.037 28.9579H111.608V38.6106H118.137ZM104.869 22.9824H118.137C124.821 22.9824 129.577 26.5377 129.577 32.8509C129.577 36.4061 127.904 39.483 125.085 41.0402V41.1434C129.159 42.3816 131.096 46.2652 131.096 50.1488C131.096 57.8034 125.139 61.2555 118.292 61.2555H104.86V22.9824H104.869Z" fill="#3D425D"/>
<path d="M137.106 33.761H143.481V38.5076C143.481 39.5301 143.381 40.4494 143.381 40.4494H143.481C144.682 36.5189 147.873 33.3857 151.947 33.3857C152.575 33.3857 153.148 33.4983 153.148 33.4983V40.2336C153.148 40.2336 152.466 40.1304 151.584 40.1304C148.765 40.1304 145.573 41.8002 144.318 45.8995C143.899 47.2504 143.745 48.7607 143.745 50.3741V61.2651H137.106V33.7797V33.761Z" fill="#3D425D"/>
<path d="M165.843 56.5653C169.344 56.5653 171.854 52.6817 171.854 49.3422V48.6949H170.708C167.316 48.6949 161.824 49.1827 161.824 53.0101C161.824 54.8393 163.133 56.5653 165.843 56.5653ZM170.917 44.0046H171.808V43.6294C171.808 40.0178 169.617 38.7796 166.689 38.7796C162.878 38.7796 159.377 41.4249 159.377 41.4249L156.867 36.5188C156.867 36.5188 160.996 33.123 167.316 33.123C174.318 33.123 178.392 37.1098 178.392 44.0609V61.2557H172.281V58.9949C172.281 57.9161 172.381 57.0531 172.381 57.0531H172.281C172.336 57.0531 170.244 61.9029 164.179 61.9029C159.423 61.9029 155.14 58.8261 155.14 53.329C155.14 44.5956 166.58 44.0046 170.917 44.0046Z" fill="#3D425D"/>
<path d="M185.804 53.0566C185.804 53.0566 188.732 56.0771 193.07 56.0771C194.952 56.0771 196.571 55.2141 196.571 53.6007C196.571 49.5013 183.612 50.0454 183.612 41.1994C183.612 36.0776 188.05 33.1133 193.797 33.1133C199.544 33.1133 202.736 36.237 202.736 36.237L200.281 41.3026C200.281 41.3026 197.826 38.9293 193.752 38.9293C192.024 38.9293 190.36 39.6797 190.36 41.4058C190.36 45.2894 203.318 44.8016 203.318 53.6382C203.318 58.2159 199.454 61.8838 193.133 61.8838C186.495 61.8838 182.785 57.8407 182.785 57.8407L185.813 53.0472L185.804 53.0566Z" fill="#3D425D"/>
<path d="M208.383 33.7608H215.022V61.2462H208.383V33.7608ZM208.383 22.9824H214.967V29.0705H208.383V22.9824Z" fill="#3D425D"/>
<path d="M221.706 22.9824H228.29V51.6591C228.29 54.6797 229.281 55.4301 231.009 55.4301C231.527 55.4301 232 55.3739 232 55.3739V61.3587C232 61.3587 231.009 61.5182 229.909 61.5182C226.253 61.5182 221.706 60.552 221.706 52.6816V22.9824Z" fill="#3D425D"/>
<path d="M109.189 78.4694H107.025L106.606 79.9703H104.86L107.216 72.8223H108.998L111.353 79.9703H109.607L109.18 78.4694H109.189ZM108.107 74.4451C108.107 74.4451 107.952 75.2237 107.825 75.674L107.425 77.0623H108.789L108.398 75.674C108.271 75.2237 108.116 74.4451 108.116 74.4451H108.098H108.107Z" fill="#3D425D"/>
<path d="M111.963 72.8223H113.654V77.3344C113.654 78.0848 114.127 78.4788 114.855 78.4788C115.582 78.4788 116.055 78.0754 116.055 77.3344V72.8223H117.746V77.3344C117.746 78.9385 116.601 80.0829 114.864 80.0829C113.127 80.0829 111.954 78.9478 111.954 77.3344V72.8223H111.963Z" fill="#3D425D"/>
<path d="M119.292 72.8219H121.756C123.939 72.8219 125.33 74.1352 125.33 76.3771C125.33 78.6191 123.939 79.9606 121.756 79.9606H119.292V72.8125V72.8219ZM121.684 78.469C122.857 78.469 123.575 77.7467 123.575 76.3771C123.575 75.0076 122.829 74.3228 121.684 74.3228H120.983V78.469H121.684Z" fill="#3D425D"/>
<path d="M128.504 76.4805C128.504 75.3455 129.404 74.4355 130.495 74.4355C131.587 74.4355 132.478 75.3455 132.478 76.4805C132.478 77.6156 131.596 78.5349 130.495 78.5349C129.395 78.5349 128.504 77.6062 128.504 76.4805Z" fill="#3D425D"/>
<path d="M139.571 78.4694H137.407L136.989 79.9703H135.243L137.598 72.8223H139.38L141.736 79.9703H139.99L139.562 78.4694H139.571ZM138.489 74.4451C138.489 74.4451 138.335 75.2237 138.207 75.674L137.807 77.0623H139.171L138.78 75.674C138.653 75.2237 138.498 74.4451 138.498 74.4451H138.48H138.489Z" fill="#3D425D"/>
<path d="M142.518 72.8219H144.982C147.164 72.8219 148.556 74.1352 148.556 76.3771C148.556 78.6191 147.164 79.9606 144.982 79.9606H142.518V72.8125V72.8219ZM144.909 78.469C146.082 78.469 146.801 77.7467 146.801 76.3771C146.801 75.0076 146.055 74.3228 144.909 74.3228H144.209V78.469H144.909Z" fill="#3D425D"/>
<path d="M148.838 72.8223H150.675L151.893 76.8841C152.03 77.3344 152.157 78.0285 152.157 78.0285H152.175C152.175 78.0285 152.303 77.325 152.439 76.8841L153.676 72.8223H155.485L153.048 79.9703H151.284L148.838 72.8223Z" fill="#3D425D"/>
<path d="M158.241 76.4805C158.241 75.3455 159.141 74.4355 160.232 74.4355C161.324 74.4355 162.215 75.3455 162.215 76.4805C162.215 77.6156 161.333 78.5349 160.232 78.5349C159.132 78.5349 158.241 77.6062 158.241 76.4805Z" fill="#3D425D"/>
<path d="M167.162 74.3232H165.061V72.8223H170.963V74.3232H168.862V79.9703H167.171V74.3232H167.162Z" fill="#3D425D"/>
<path d="M174.918 78.4694H172.754L172.336 79.9703H170.59L172.945 72.8223H174.728L177.083 79.9703H175.337L174.909 78.4694H174.918ZM173.827 74.4451C173.827 74.4451 173.673 75.2237 173.545 75.674L173.145 77.0623H174.509L174.118 75.674C173.991 75.2237 173.836 74.4451 173.836 74.4451H173.818H173.827Z" fill="#3D425D"/>
<path d="M179.302 76.4151L177.192 72.8223H179.12L179.875 74.295C180.102 74.7453 180.302 75.2143 180.302 75.2143H180.32C180.32 75.2143 180.502 74.7547 180.748 74.295L181.511 72.8223H183.439L181.32 76.4151L183.43 79.961H181.539L180.748 78.46C180.502 78.0098 180.32 77.5689 180.32 77.5689H180.302C180.302 77.5689 180.12 78.0098 179.875 78.46L179.083 79.961H177.201L179.302 76.4151Z" fill="#3D425D"/>
<path d="M186.395 76.4805C186.395 75.3455 187.295 74.4355 188.387 74.4355C189.478 74.4355 190.369 75.3455 190.369 76.4805C190.369 77.6156 189.487 78.5349 188.387 78.5349C187.286 78.5349 186.395 77.6062 186.395 76.4805Z" fill="#3D425D"/>
<path d="M193.988 72.8219H196.453C198.635 72.8219 200.027 74.1352 200.027 76.3771C200.027 78.6191 198.635 79.9606 196.453 79.9606H193.988V72.8125V72.8219ZM196.38 78.469C197.553 78.469 198.271 77.7467 198.271 76.3771C198.271 75.0076 197.526 74.3228 196.38 74.3228H195.68V78.469H196.38Z" fill="#3D425D"/>
<path d="M201.218 72.8223H202.909V79.9703H201.218V72.8223Z" fill="#3D425D"/>
<path d="M207.711 72.7002C209.484 72.7002 210.375 73.6476 210.375 73.6476L209.566 74.9609C209.566 74.9609 208.857 74.3043 207.884 74.3043C206.429 74.3043 205.838 75.2611 205.838 76.3211C205.838 77.6813 206.747 78.4881 207.82 78.4881C208.638 78.4881 209.221 77.9721 209.221 77.9721V77.4187H208.238V75.9271H210.721V79.9608H209.311V79.7638C209.311 79.6137 209.321 79.4637 209.321 79.4637H209.302C209.302 79.4637 208.638 80.0828 207.484 80.0828C205.71 80.0828 204.083 78.7132 204.083 76.3774C204.083 74.2949 205.601 72.7002 207.711 72.7002Z" fill="#3D425D"/>
<path d="M212.003 72.8223H213.694V79.9703H212.003V72.8223Z" fill="#3D425D"/>
<path d="M216.659 74.3232H214.559V72.8223H220.46V74.3232H218.36V79.9703H216.668V74.3232H216.659Z" fill="#3D425D"/>
<path d="M224.407 78.4694H222.242L221.824 79.9703H220.078L222.433 72.8223H224.216L226.571 79.9703H224.825L224.398 78.4694H224.407ZM223.325 74.4451C223.325 74.4451 223.17 75.2237 223.043 75.674L222.643 77.0623H224.007L223.616 75.674C223.488 75.2237 223.334 74.4451 223.334 74.4451H223.316H223.325Z" fill="#3D425D"/>
<path d="M227.354 72.8223H229.045V78.4694H231.873V79.9703H227.354V72.8223Z" fill="#3D425D"/>
</g>
<defs>
<clipPath id="clip0_1125_93">
<rect width="232" height="88" fill="white"/>
</clipPath>
</defs>
</svg>
