<svg width="178" height="80" viewBox="0 0 178 80" fill="none" xmlns="http://www.w3.org/2000/svg">
<rect width="178" height="80" rx="40" fill="#EBEBEB"/>
<path d="M21.3702 46.8883C20.4656 44.7044 20 42.3638 20 40C20 35.2261 21.8964 30.6477 25.2721 27.2721C28.6477 23.8964 33.2261 22 38 22C42.7739 22 47.3523 23.8964 50.7279 27.2721C54.1036 30.6477 56 35.2261 56 40C56 42.3638 55.5344 44.7044 54.6298 46.8883C53.7253 49.0722 52.3994 51.0565 50.7279 52.7279C49.0565 54.3994 47.0722 55.7253 44.8883 56.6298C42.7044 57.5344 40.3638 58 38 58C35.6362 58 33.2956 57.5344 31.1117 56.6298C28.9278 55.7253 26.9435 54.3994 25.2721 52.7279C23.6006 51.0565 22.2748 49.0722 21.3702 46.8883Z" stroke="black" stroke-width="2" stroke-linecap="round" stroke-linejoin="round"/>
<path d="M21.2002 34H54.8002" stroke="black" stroke-width="2" stroke-linecap="round" stroke-linejoin="round"/>
<path d="M21.2002 46H54.8002" stroke="black" stroke-width="2" stroke-linecap="round" stroke-linejoin="round"/>
<path d="M37.0003 22C33.631 27.3992 31.8447 33.6357 31.8447 40C31.8447 46.3643 33.631 52.6008 37.0003 58" stroke="black" stroke-width="2" stroke-linecap="round" stroke-linejoin="round"/>
<path d="M39 22C42.3693 27.3992 44.1556 33.6357 44.1556 40C44.1556 46.3643 42.3693 52.6008 39 58" stroke="black" stroke-width="2" stroke-linecap="round" stroke-linejoin="round"/>
<path d="M86.7214 50V33.128H92.5534C95.5774 33.128 97.7614 35.096 97.7614 38.216C97.7614 41.36 95.5774 43.376 92.5534 43.376H88.3774V50H86.7214ZM88.3774 41.888H92.3374C94.5934 41.888 96.0574 40.52 96.0574 38.216C96.0574 35.936 94.5934 34.616 92.3614 34.616H88.3774V41.888ZM104.857 50V34.616H98.7852V33.128H112.561V34.616H106.513V50H104.857Z" fill="black"/>
<path d="M150.5 49L142.273 35.5L158.727 35.5L150.5 49Z" fill="#B1B1B1"/>
</svg>
