<svg width="479" height="80" viewBox="0 0 479 80" fill="none" xmlns="http://www.w3.org/2000/svg">
<rect x="0.5" y="0.5" width="478" height="79" rx="39.5" fill="#3D425D" stroke="#848484"/>
<path d="M51.9913 51L49.3993 43.832H40.3433L37.7833 51H35.4473L43.7033 28.504H46.0713L54.3273 51H51.9913ZM44.9193 30.84H44.8553C44.8553 30.84 44.3753 32.696 43.9913 33.752L40.9833 41.912H48.7273L45.7833 33.752C45.3993 32.696 44.9193 30.84 44.9193 30.84ZM57.374 51V34.904H59.518V37.304C59.518 38.008 59.454 38.584 59.454 38.584H59.518C60.094 37.112 62.142 34.52 65.95 34.52C69.918 34.52 71.326 36.792 71.326 40.76V51H69.15V41.336C69.15 38.808 68.766 36.568 65.662 36.568C62.91 36.568 60.542 38.456 59.806 41.112C59.614 41.784 59.55 42.52 59.55 43.288V51H57.374ZM75.0308 46.616C75.0308 41.176 82.1028 41.048 84.8868 41.048H85.7828V40.632C85.7828 37.528 84.0868 36.472 81.7828 36.472C79.1268 36.472 77.2388 38.008 77.2388 38.008L76.2148 36.344C76.2148 36.344 78.3268 34.52 81.9427 34.52C85.8148 34.52 87.9588 36.664 87.9588 40.696V51H85.8788V49.24C85.8788 48.44 85.9428 47.896 85.9428 47.896H85.8788C85.8788 47.896 84.5348 51.384 80.5028 51.384C77.8148 51.384 75.0308 49.816 75.0308 46.616ZM77.2708 46.488C77.2708 47.992 78.4548 49.528 80.8548 49.528C83.9268 49.528 85.7828 46.328 85.7828 43.544V42.84H84.8548C82.3268 42.84 77.2708 42.936 77.2708 46.488ZM92.8078 47.192V28.504H94.9838V46.712C94.9838 48.824 95.9438 49.144 96.7758 49.144C97.0638 49.144 97.3198 49.112 97.3198 49.112V51.064C97.3198 51.064 96.9358 51.128 96.5198 51.128C95.1758 51.128 92.8078 50.712 92.8078 47.192ZM100.81 31.224V28.504H103.082V31.224H100.81ZM100.874 51V34.904H103.05V51H100.874ZM107 49.048L108.184 47.48C108.184 47.48 109.976 49.432 112.984 49.432C114.712 49.432 116.216 48.568 116.216 46.872C116.216 43.352 107.544 44.216 107.544 38.968C107.544 36.088 110.136 34.52 113.048 34.52C116.44 34.52 118.008 36.28 118.008 36.28L117.016 37.944C117.016 37.944 115.64 36.472 112.984 36.472C111.352 36.472 109.784 37.176 109.784 38.968C109.784 42.52 118.456 41.56 118.456 46.872C118.456 49.496 116.184 51.384 112.952 51.384C109.048 51.384 107 49.048 107 49.048ZM121.187 46.616C121.187 41.176 128.259 41.048 131.043 41.048H131.939V40.632C131.939 37.528 130.243 36.472 127.939 36.472C125.283 36.472 123.395 38.008 123.395 38.008L122.371 36.344C122.371 36.344 124.483 34.52 128.099 34.52C131.971 34.52 134.115 36.664 134.115 40.696V51H132.035V49.24C132.035 48.44 132.099 47.896 132.099 47.896H132.035C132.035 47.896 130.691 51.384 126.659 51.384C123.971 51.384 121.187 49.816 121.187 46.616ZM123.427 46.488C123.427 47.992 124.611 49.528 127.011 49.528C130.083 49.528 131.939 46.328 131.939 43.544V42.84H131.011C128.483 42.84 123.427 42.936 123.427 46.488ZM139.124 51V34.904H141.268V37.752C141.268 38.456 141.204 39.032 141.204 39.032H141.268C142.036 36.6 143.828 34.744 146.356 34.744C146.804 34.744 147.22 34.84 147.22 34.84V36.984C147.22 36.984 146.836 36.92 146.42 36.92C144.148 36.92 142.452 38.712 141.748 41.08C141.428 42.104 141.3 43.192 141.3 44.216V51H139.124ZM159.124 51V34.904H161.268V37.304C161.268 38.008 161.204 38.584 161.204 38.584H161.268C162.036 36.408 164.596 34.52 167.092 34.52C170.068 34.52 171.604 35.896 172.084 38.552H172.148C173.012 36.376 175.348 34.52 178.068 34.52C181.972 34.52 183.412 36.792 183.412 40.76V51H181.236V41.304C181.236 38.68 180.692 36.504 177.748 36.504C175.284 36.504 173.268 38.68 172.66 41.048C172.436 41.752 172.372 42.52 172.372 43.384V51H170.196V41.304C170.196 38.872 169.844 36.504 166.804 36.504C164.18 36.504 162.196 38.776 161.524 41.24C161.364 41.912 161.3 42.648 161.3 43.384V51H159.124ZM188.373 31.224V28.504H190.645V31.224H188.373ZM188.437 51V34.904H190.613V51H188.437ZM195.874 51V34.904H198.018V37.304C198.018 38.008 197.954 38.584 197.954 38.584H198.018C198.594 37.112 200.642 34.52 204.45 34.52C208.418 34.52 209.826 36.792 209.826 40.76V51H207.65V41.336C207.65 38.808 207.266 36.568 204.162 36.568C201.41 36.568 199.042 38.456 198.306 41.112C198.114 41.784 198.05 42.52 198.05 43.288V51H195.874ZM214.843 51V28.504H217.019V37.208C217.019 37.944 216.955 38.52 216.955 38.52H217.019C217.627 36.984 219.771 34.52 223.419 34.52C227.387 34.52 228.795 36.792 228.795 40.76V51H226.619V41.336C226.619 38.808 226.235 36.568 223.131 36.568C220.379 36.568 218.011 38.456 217.275 41.144C217.083 41.784 217.019 42.52 217.019 43.288V51H214.843ZM232.5 46.616C232.5 41.176 239.572 41.048 242.356 41.048H243.252V40.632C243.252 37.528 241.556 36.472 239.252 36.472C236.596 36.472 234.708 38.008 234.708 38.008L233.684 36.344C233.684 36.344 235.796 34.52 239.411 34.52C243.284 34.52 245.428 36.664 245.428 40.696V51H243.348V49.24C243.348 48.44 243.412 47.896 243.412 47.896H243.348C243.348 47.896 242.004 51.384 237.972 51.384C235.284 51.384 232.5 49.816 232.5 46.616ZM234.74 46.488C234.74 47.992 235.924 49.528 238.324 49.528C241.396 49.528 243.252 46.328 243.252 43.544V42.84H242.324C239.796 42.84 234.74 42.936 234.74 46.488ZM257.91 42.968C257.91 38.008 261.622 34.52 266.358 34.52C270.294 34.52 272.246 36.824 272.246 36.824L271.126 38.456C271.126 38.456 269.334 36.504 266.422 36.504C262.902 36.504 260.15 39.128 260.15 42.968C260.15 46.744 262.934 49.432 266.486 49.432C269.75 49.432 271.638 47.16 271.638 47.16L272.63 48.856C272.63 48.856 270.454 51.384 266.358 51.384C261.59 51.384 257.91 47.96 257.91 42.968ZM275.281 46.616C275.281 41.176 282.353 41.048 285.137 41.048H286.033V40.632C286.033 37.528 284.337 36.472 282.033 36.472C279.377 36.472 277.489 38.008 277.489 38.008L276.465 36.344C276.465 36.344 278.577 34.52 282.193 34.52C286.065 34.52 288.209 36.664 288.209 40.696V51H286.129V49.24C286.129 48.44 286.193 47.896 286.193 47.896H286.129C286.129 47.896 284.785 51.384 280.753 51.384C278.065 51.384 275.281 49.816 275.281 46.616ZM277.521 46.488C277.521 47.992 278.705 49.528 281.105 49.528C284.177 49.528 286.033 46.328 286.033 43.544V42.84H285.105C282.577 42.84 277.521 42.936 277.521 46.488ZM292.162 42.936C292.162 37.848 295.17 34.52 299.394 34.52C303.298 34.52 304.642 37.56 304.642 37.56H304.706C304.706 37.56 304.642 37.016 304.642 36.344V28.504H306.818V51H304.706V49.304C304.706 48.6 304.77 48.152 304.77 48.152H304.706C304.706 48.152 303.394 51.384 299.17 51.384C294.85 51.384 292.162 47.928 292.162 42.936ZM294.402 42.936C294.402 46.904 296.482 49.432 299.49 49.432C302.178 49.432 304.706 47.512 304.706 42.936C304.706 39.672 303.042 36.472 299.586 36.472C296.738 36.472 294.402 38.872 294.402 42.936ZM310.942 42.968C310.942 37.688 314.526 34.52 318.878 34.52C323.326 34.52 325.597 37.944 325.597 41.944C325.597 42.328 325.534 43.064 325.534 43.064H313.182C313.278 47.192 316.094 49.432 319.422 49.432C322.366 49.432 324.318 47.48 324.318 47.48L325.31 49.144C325.31 49.144 322.974 51.384 319.358 51.384C314.558 51.384 310.942 47.928 310.942 42.968ZM313.278 41.272H323.39C323.262 37.912 321.214 36.344 318.814 36.344C316.126 36.344 313.79 38.04 313.278 41.272ZM329.685 31.224V28.504H331.957V31.224H329.685ZM329.749 51V34.904H331.925V51H329.749ZM335.875 46.616C335.875 41.176 342.947 41.048 345.731 41.048H346.627V40.632C346.627 37.528 344.931 36.472 342.627 36.472C339.971 36.472 338.083 38.008 338.083 38.008L337.059 36.344C337.059 36.344 339.171 34.52 342.786 34.52C346.659 34.52 348.803 36.664 348.803 40.696V51H346.723V49.24C346.723 48.44 346.787 47.896 346.787 47.896H346.723C346.723 47.896 345.379 51.384 341.347 51.384C338.659 51.384 335.875 49.816 335.875 46.616ZM338.115 46.488C338.115 47.992 339.299 49.528 341.699 49.528C344.771 49.528 346.627 46.328 346.627 43.544V42.84H345.699C343.171 42.84 338.115 42.936 338.115 46.488ZM361.093 46.616C361.093 41.176 368.165 41.048 370.949 41.048H371.845V40.632C371.845 37.528 370.149 36.472 367.845 36.472C365.189 36.472 363.301 38.008 363.301 38.008L362.277 36.344C362.277 36.344 364.389 34.52 368.005 34.52C371.877 34.52 374.021 36.664 374.021 40.696V51H371.941V49.24C371.941 48.44 372.005 47.896 372.005 47.896H371.941C371.941 47.896 370.597 51.384 366.565 51.384C363.877 51.384 361.093 49.816 361.093 46.616ZM363.333 46.488C363.333 47.992 364.517 49.528 366.917 49.528C369.989 49.528 371.845 46.328 371.845 43.544V42.84H370.917C368.389 42.84 363.333 42.936 363.333 46.488ZM380.246 54.648C380.246 54.648 382.23 55.768 384.598 55.768C387.734 55.768 390.23 54.296 390.23 50.712V49.24C390.23 48.632 390.294 48.088 390.294 48.088H390.23C389.27 49.88 387.638 50.904 385.142 50.904C380.822 50.904 377.974 47.48 377.974 42.648C377.974 37.816 380.63 34.52 384.95 34.52C389.206 34.52 390.262 37.208 390.262 37.208H390.326C390.326 37.208 390.294 37.016 390.294 36.664V34.904H392.406V50.616C392.406 55.736 388.63 57.72 384.694 57.72C382.838 57.72 380.982 57.24 379.414 56.44L380.246 54.648ZM385.494 48.952C388.022 48.952 390.262 47.384 390.262 42.648C390.262 37.944 388.022 36.504 385.174 36.504C382.038 36.504 380.214 38.776 380.214 42.616C380.214 46.456 382.294 48.952 385.494 48.952ZM396.471 42.872C396.471 38.104 400.279 34.52 404.983 34.52C409.687 34.52 413.495 38.104 413.495 42.872C413.495 47.736 409.687 51.384 404.983 51.384C400.279 51.384 396.471 47.736 396.471 42.872ZM398.711 42.872C398.711 46.616 401.527 49.432 404.983 49.432C408.439 49.432 411.255 46.616 411.255 42.872C411.255 39.224 408.439 36.504 404.983 36.504C401.527 36.504 398.711 39.224 398.711 42.872ZM417.562 51V34.904H419.706V37.752C419.706 38.456 419.641 39.032 419.641 39.032H419.706C420.474 36.6 422.266 34.744 424.794 34.744C425.242 34.744 425.658 34.84 425.658 34.84V36.984C425.658 36.984 425.274 36.92 424.858 36.92C422.586 36.92 420.89 38.712 420.186 41.08C419.866 42.104 419.738 43.192 419.738 44.216V51H417.562ZM427.656 46.616C427.656 41.176 434.728 41.048 437.512 41.048H438.408V40.632C438.408 37.528 436.712 36.472 434.408 36.472C431.752 36.472 429.864 38.008 429.864 38.008L428.84 36.344C428.84 36.344 430.952 34.52 434.568 34.52C438.44 34.52 440.584 36.664 440.584 40.696V51H438.504V49.24C438.504 48.44 438.568 47.896 438.568 47.896H438.504C438.504 47.896 437.16 51.384 433.128 51.384C430.44 51.384 427.656 49.816 427.656 46.616ZM429.896 46.488C429.896 47.992 431.08 49.528 433.48 49.528C436.552 49.528 438.408 46.328 438.408 43.544V42.84H437.48C434.952 42.84 429.896 42.936 429.896 46.488Z" fill="white"/>
</svg>
