<svg width="520" height="80" viewBox="0 0 520 80" fill="none" xmlns="http://www.w3.org/2000/svg">
<rect x="0.5" y="0.5" width="519" height="79" rx="39.5" stroke="#848484"/>
<path d="M46.3734 51V28.504H58.2134V30.488H48.5814V38.936H56.8374V40.92H48.5814V51H46.3734ZM60.3901 46.616C60.3901 41.176 67.4621 41.048 70.2461 41.048H71.1421V40.632C71.1421 37.528 69.4461 36.472 67.1421 36.472C64.4861 36.472 62.5981 38.008 62.5981 38.008L61.5741 36.344C61.5741 36.344 63.6861 34.52 67.3021 34.52C71.1741 34.52 73.3181 36.664 73.3181 40.696V51H71.2381V49.24C71.2381 48.44 71.3021 47.896 71.3021 47.896H71.2381C71.2381 47.896 69.8941 51.384 65.8621 51.384C63.1741 51.384 60.3901 49.816 60.3901 46.616ZM62.6301 46.488C62.6301 47.992 63.8141 49.528 66.2141 49.528C69.2861 49.528 71.1421 46.328 71.1421 43.544V42.84H70.2141C67.6861 42.84 62.6301 42.936 62.6301 46.488ZM78.1671 47.192V28.504H80.3431V46.712C80.3431 48.824 81.3031 49.144 82.1351 49.144C82.4231 49.144 82.6791 49.112 82.6791 49.112V51.064C82.6791 51.064 82.2951 51.128 81.8791 51.128C80.5351 51.128 78.1671 50.712 78.1671 47.192ZM85.1134 42.968C85.1134 37.688 88.6974 34.52 93.0494 34.52C97.4974 34.52 99.7694 37.944 99.7694 41.944C99.7694 42.328 99.7054 43.064 99.7054 43.064H87.3534C87.4494 47.192 90.2654 49.432 93.5934 49.432C96.5374 49.432 98.4894 47.48 98.4894 47.48L99.4814 49.144C99.4814 49.144 97.1454 51.384 93.5294 51.384C88.7294 51.384 85.1134 47.928 85.1134 42.968ZM87.4494 41.272H97.5614C97.4334 37.912 95.3854 36.344 92.9854 36.344C90.2974 36.344 87.9614 38.04 87.4494 41.272ZM111.395 42.968C111.395 38.008 115.107 34.52 119.843 34.52C123.779 34.52 125.731 36.824 125.731 36.824L124.611 38.456C124.611 38.456 122.819 36.504 119.907 36.504C116.387 36.504 113.635 39.128 113.635 42.968C113.635 46.744 116.419 49.432 119.971 49.432C123.235 49.432 125.123 47.16 125.123 47.16L126.115 48.856C126.115 48.856 123.939 51.384 119.843 51.384C115.075 51.384 111.395 47.96 111.395 42.968ZM128.893 42.872C128.893 38.104 132.701 34.52 137.405 34.52C142.109 34.52 145.917 38.104 145.917 42.872C145.917 47.736 142.109 51.384 137.405 51.384C132.701 51.384 128.893 47.736 128.893 42.872ZM131.133 42.872C131.133 46.616 133.949 49.432 137.405 49.432C140.861 49.432 143.677 46.616 143.677 42.872C143.677 39.224 140.861 36.504 137.405 36.504C133.949 36.504 131.133 39.224 131.133 42.872ZM149.983 51V34.904H152.127V37.304C152.127 38.008 152.063 38.584 152.063 38.584H152.127C152.895 36.408 155.455 34.52 157.951 34.52C160.927 34.52 162.463 35.896 162.943 38.552H163.007C163.871 36.376 166.207 34.52 168.927 34.52C172.831 34.52 174.271 36.792 174.271 40.76V51H172.095V41.304C172.095 38.68 171.551 36.504 168.607 36.504C166.143 36.504 164.127 38.68 163.519 41.048C163.295 41.752 163.231 42.52 163.231 43.384V51H161.055V41.304C161.055 38.872 160.703 36.504 157.663 36.504C155.039 36.504 153.055 38.776 152.383 41.24C152.223 41.912 152.159 42.648 152.159 43.384V51H149.983ZM187.666 45.144V34.904H189.842V44.568C189.842 47.096 190.226 49.336 193.33 49.336C197.01 49.336 199.282 46.104 199.282 42.616V34.904H201.458V51H199.346V48.6C199.346 47.896 199.41 47.32 199.41 47.32H199.346C198.706 48.888 196.594 51.384 193.042 51.384C189.266 51.384 187.666 49.336 187.666 45.144ZM206.702 51V34.904H208.846V37.304C208.846 38.008 208.782 38.584 208.782 38.584H208.846C209.614 36.408 212.174 34.52 214.67 34.52C217.646 34.52 219.182 35.896 219.662 38.552H219.726C220.59 36.376 222.926 34.52 225.646 34.52C229.55 34.52 230.99 36.792 230.99 40.76V51H228.814V41.304C228.814 38.68 228.27 36.504 225.326 36.504C222.862 36.504 220.846 38.68 220.238 41.048C220.014 41.752 219.95 42.52 219.95 43.384V51H217.774V41.304C217.774 38.872 217.422 36.504 214.382 36.504C211.758 36.504 209.774 38.776 209.102 41.24C208.942 41.912 208.878 42.648 208.878 43.384V51H206.702ZM243.488 42.968C243.488 37.688 247.072 34.52 251.424 34.52C255.872 34.52 258.144 37.944 258.144 41.944C258.144 42.328 258.08 43.064 258.08 43.064H245.728C245.824 47.192 248.64 49.432 251.968 49.432C254.912 49.432 256.864 47.48 256.864 47.48L257.856 49.144C257.856 49.144 255.52 51.384 251.904 51.384C247.104 51.384 243.488 47.928 243.488 42.968ZM245.824 41.272H255.936C255.808 37.912 253.76 36.344 251.36 36.344C248.672 36.344 246.336 38.04 245.824 41.272ZM260.984 49.048L262.168 47.48C262.168 47.48 263.96 49.432 266.968 49.432C268.696 49.432 270.2 48.568 270.2 46.872C270.2 43.352 261.528 44.216 261.528 38.968C261.528 36.088 264.12 34.52 267.032 34.52C270.424 34.52 271.992 36.28 271.992 36.28L271 37.944C271 37.944 269.624 36.472 266.968 36.472C265.336 36.472 263.768 37.176 263.768 38.968C263.768 42.52 272.44 41.56 272.44 46.872C272.44 49.496 270.168 51.384 266.936 51.384C263.032 51.384 260.984 49.048 260.984 49.048ZM276.483 57.4V34.904H278.563V36.472C278.563 37.176 278.499 37.72 278.499 37.72H278.563C278.563 37.72 279.875 34.52 284.131 34.52C288.451 34.52 291.139 37.976 291.139 42.968C291.139 48.056 288.099 51.384 283.939 51.384C280.067 51.384 278.659 48.312 278.659 48.312H278.595C278.595 48.312 278.659 48.888 278.659 49.72V57.4H276.483ZM278.595 43C278.595 46.232 280.387 49.464 283.715 49.464C286.563 49.464 288.899 47.064 288.899 42.968C288.899 39.032 286.819 36.504 283.811 36.504C281.123 36.504 278.595 38.424 278.595 43ZM294.207 42.968C294.207 37.688 297.791 34.52 302.143 34.52C306.591 34.52 308.863 37.944 308.863 41.944C308.863 42.328 308.799 43.064 308.799 43.064H296.447C296.543 47.192 299.359 49.432 302.687 49.432C305.631 49.432 307.583 47.48 307.583 47.48L308.575 49.144C308.575 49.144 306.239 51.384 302.623 51.384C297.823 51.384 294.207 47.928 294.207 42.968ZM296.543 41.272H306.655C306.527 37.912 304.479 36.344 302.079 36.344C299.391 36.344 297.055 38.04 296.543 41.272ZM311.895 42.968C311.895 38.008 315.607 34.52 320.343 34.52C324.279 34.52 326.231 36.824 326.231 36.824L325.111 38.456C325.111 38.456 323.319 36.504 320.407 36.504C316.887 36.504 314.135 39.128 314.135 42.968C314.135 46.744 316.919 49.432 320.471 49.432C323.735 49.432 325.623 47.16 325.623 47.16L326.615 48.856C326.615 48.856 324.439 51.384 320.343 51.384C315.575 51.384 311.895 47.96 311.895 42.968ZM330.513 31.224V28.504H332.785V31.224H330.513ZM330.577 51V34.904H332.753V51H330.577ZM336.703 46.616C336.703 41.176 343.775 41.048 346.559 41.048H347.455V40.632C347.455 37.528 345.759 36.472 343.455 36.472C340.799 36.472 338.911 38.008 338.911 38.008L337.887 36.344C337.887 36.344 339.999 34.52 343.615 34.52C347.487 34.52 349.631 36.664 349.631 40.696V51H347.551V49.24C347.551 48.44 347.615 47.896 347.615 47.896H347.551C347.551 47.896 346.207 51.384 342.175 51.384C339.487 51.384 336.703 49.816 336.703 46.616ZM338.943 46.488C338.943 47.992 340.127 49.528 342.527 49.528C345.599 49.528 347.455 46.328 347.455 43.544V42.84H346.527C343.999 42.84 338.943 42.936 338.943 46.488ZM354.48 47.192V28.504H356.656V46.712C356.656 48.824 357.616 49.144 358.448 49.144C358.736 49.144 358.992 49.112 358.992 49.112V51.064C358.992 51.064 358.608 51.128 358.192 51.128C356.848 51.128 354.48 50.712 354.48 47.192ZM362.482 31.224V28.504H364.754V31.224H362.482ZM362.546 51V34.904H364.722V51H362.546ZM368.671 49.048L369.855 47.48C369.855 47.48 371.647 49.432 374.655 49.432C376.383 49.432 377.887 48.568 377.887 46.872C377.887 43.352 369.215 44.216 369.215 38.968C369.215 36.088 371.807 34.52 374.719 34.52C378.111 34.52 379.679 36.28 379.679 36.28L378.687 37.944C378.687 37.944 377.311 36.472 374.655 36.472C373.023 36.472 371.455 37.176 371.455 38.968C371.455 42.52 380.127 41.56 380.127 46.872C380.127 49.496 377.855 51.384 374.623 51.384C370.719 51.384 368.671 49.048 368.671 49.048ZM384.779 45.144V36.92H382.667V35.096H384.811V30.456H386.955V35.096H390.987V36.92H386.955V44.92C386.955 48.696 389.355 49.176 390.571 49.176C391.019 49.176 391.307 49.112 391.307 49.112V51.064C391.307 51.064 390.955 51.128 390.379 51.128C388.523 51.128 384.779 50.52 384.779 45.144ZM393.578 46.616C393.578 41.176 400.65 41.048 403.434 41.048H404.33V40.632C404.33 37.528 402.634 36.472 400.33 36.472C397.674 36.472 395.786 38.008 395.786 38.008L394.762 36.344C394.762 36.344 396.874 34.52 400.49 34.52C404.362 34.52 406.506 36.664 406.506 40.696V51H404.426V49.24C404.426 48.44 404.49 47.896 404.49 47.896H404.426C404.426 47.896 403.082 51.384 399.05 51.384C396.362 51.384 393.578 49.816 393.578 46.616ZM395.818 46.488C395.818 47.992 397.002 49.528 399.402 49.528C402.474 49.528 404.33 46.328 404.33 43.544V42.84H403.402C400.874 42.84 395.818 42.936 395.818 46.488Z" fill="#8E8E8E"/>
<path d="M480.707 40.7071C481.098 40.3166 481.098 39.6834 480.707 39.2929L474.343 32.9289C473.953 32.5384 473.319 32.5384 472.929 32.9289C472.538 33.3195 472.538 33.9526 472.929 34.3431L478.586 40L472.929 45.6569C472.538 46.0474 472.538 46.6805 472.929 47.0711C473.319 47.4616 473.953 47.4616 474.343 47.0711L480.707 40.7071ZM442 40V41H480V40V39H442V40Z" fill="#8F8F8F"/>
</svg>
